<mxfile host="app.diagrams.net" agent="Mozilla/5.0 (Windows NT 10.0; Win64; x64) AppleWebKit/537.36 (KHTML, like Gecko) Chrome/132.0.0.0 Safari/537.36" version="26.0.6">
  <diagram name="1 oldal" id="pigtp7aMkopCufH6L7AY">
    <mxGraphModel dx="724" dy="384" grid="0" gridSize="10" guides="1" tooltips="1" connect="1" arrows="1" fold="1" page="0" pageScale="1" pageWidth="827" pageHeight="1169" math="0" shadow="0">
      <root>
        <mxCell id="0" />
        <mxCell id="1" parent="0" />
        <mxCell id="foVdDC1JOcnJWbihWJFM-1" value="&lt;p style=&quot;margin:0px;margin-top:4px;text-align:center;&quot;&gt;&lt;i&gt;&amp;lt;&amp;lt;Interface&amp;gt;&amp;gt;&lt;/i&gt;&lt;br&gt;&lt;b&gt;Box&lt;/b&gt;&lt;/p&gt;&lt;hr size=&quot;1&quot; style=&quot;border-style:solid;&quot;&gt;&lt;p style=&quot;margin:0px;margin-left:4px;&quot;&gt;&amp;nbsp;&lt;br&gt;&amp;nbsp;&lt;/p&gt;&lt;hr size=&quot;1&quot; style=&quot;border-style:solid;&quot;&gt;&lt;p style=&quot;margin:0px;margin-left:4px;&quot;&gt;+ GetValue(): int&lt;/p&gt;&lt;p style=&quot;margin:0px;margin-left:4px;&quot;&gt;+ GetName(): string&lt;/p&gt;" style="verticalAlign=top;align=left;overflow=fill;html=1;whiteSpace=wrap;fillColor=#f5f5f5;fontColor=#333333;strokeColor=#666666;" vertex="1" parent="1">
          <mxGeometry x="218" y="112" width="190" height="140" as="geometry" />
        </mxCell>
        <mxCell id="foVdDC1JOcnJWbihWJFM-7" style="edgeStyle=orthogonalEdgeStyle;rounded=0;orthogonalLoop=1;jettySize=auto;html=1;endArrow=block;endFill=0;endSize=10;fillColor=#f5f5f5;strokeColor=#666666;strokeWidth=2;" edge="1" parent="1" source="foVdDC1JOcnJWbihWJFM-3" target="foVdDC1JOcnJWbihWJFM-1">
          <mxGeometry relative="1" as="geometry" />
        </mxCell>
        <mxCell id="foVdDC1JOcnJWbihWJFM-3" value="Product" style="swimlane;fontStyle=1;align=center;verticalAlign=top;childLayout=stackLayout;horizontal=1;startSize=26;horizontalStack=0;resizeParent=1;resizeParentMax=0;resizeLast=0;collapsible=1;marginBottom=0;whiteSpace=wrap;html=1;fillColor=#f5f5f5;fontColor=#333333;strokeColor=#666666;" vertex="1" parent="1">
          <mxGeometry x="132" y="342" width="166" height="105" as="geometry" />
        </mxCell>
        <mxCell id="foVdDC1JOcnJWbihWJFM-4" value="- productValue: int&lt;div&gt;- productName: string&lt;/div&gt;" style="text;strokeColor=none;fillColor=none;align=left;verticalAlign=top;spacingLeft=4;spacingRight=4;overflow=hidden;rotatable=0;points=[[0,0.5],[1,0.5]];portConstraint=eastwest;whiteSpace=wrap;html=1;" vertex="1" parent="foVdDC1JOcnJWbihWJFM-3">
          <mxGeometry y="26" width="166" height="45" as="geometry" />
        </mxCell>
        <mxCell id="foVdDC1JOcnJWbihWJFM-5" value="" style="line;strokeWidth=1;fillColor=none;align=left;verticalAlign=middle;spacingTop=-1;spacingLeft=3;spacingRight=3;rotatable=0;labelPosition=right;points=[];portConstraint=eastwest;strokeColor=inherit;" vertex="1" parent="foVdDC1JOcnJWbihWJFM-3">
          <mxGeometry y="71" width="166" height="8" as="geometry" />
        </mxCell>
        <mxCell id="foVdDC1JOcnJWbihWJFM-6" value="+ Product(string, int)" style="text;strokeColor=none;fillColor=none;align=left;verticalAlign=top;spacingLeft=4;spacingRight=4;overflow=hidden;rotatable=0;points=[[0,0.5],[1,0.5]];portConstraint=eastwest;whiteSpace=wrap;html=1;" vertex="1" parent="foVdDC1JOcnJWbihWJFM-3">
          <mxGeometry y="79" width="166" height="26" as="geometry" />
        </mxCell>
        <mxCell id="foVdDC1JOcnJWbihWJFM-8" value="CompositeBox" style="swimlane;fontStyle=1;align=center;verticalAlign=top;childLayout=stackLayout;horizontal=1;startSize=26;horizontalStack=0;resizeParent=1;resizeParentMax=0;resizeLast=0;collapsible=1;marginBottom=0;whiteSpace=wrap;html=1;fillColor=#f5f5f5;fontColor=#333333;strokeColor=#666666;" vertex="1" parent="1">
          <mxGeometry x="338" y="342" width="166" height="136" as="geometry" />
        </mxCell>
        <mxCell id="foVdDC1JOcnJWbihWJFM-9" value="- boxes: list&amp;lt;Box&amp;gt;" style="text;strokeColor=none;fillColor=none;align=left;verticalAlign=top;spacingLeft=4;spacingRight=4;overflow=hidden;rotatable=0;points=[[0,0.5],[1,0.5]];portConstraint=eastwest;whiteSpace=wrap;html=1;" vertex="1" parent="foVdDC1JOcnJWbihWJFM-8">
          <mxGeometry y="26" width="166" height="31" as="geometry" />
        </mxCell>
        <mxCell id="foVdDC1JOcnJWbihWJFM-10" value="" style="line;strokeWidth=1;fillColor=none;align=left;verticalAlign=middle;spacingTop=-1;spacingLeft=3;spacingRight=3;rotatable=0;labelPosition=right;points=[];portConstraint=eastwest;strokeColor=inherit;" vertex="1" parent="foVdDC1JOcnJWbihWJFM-8">
          <mxGeometry y="57" width="166" height="8" as="geometry" />
        </mxCell>
        <mxCell id="foVdDC1JOcnJWbihWJFM-11" value="+ CompositeBox()&lt;div&gt;+ Add(Box): void&lt;/div&gt;&lt;div&gt;+ Remove(Box): void&lt;/div&gt;&lt;div&gt;+ GetChild(int): Box&lt;/div&gt;" style="text;strokeColor=none;fillColor=none;align=left;verticalAlign=top;spacingLeft=4;spacingRight=4;overflow=hidden;rotatable=0;points=[[0,0.5],[1,0.5]];portConstraint=eastwest;whiteSpace=wrap;html=1;" vertex="1" parent="foVdDC1JOcnJWbihWJFM-8">
          <mxGeometry y="65" width="166" height="71" as="geometry" />
        </mxCell>
        <mxCell id="foVdDC1JOcnJWbihWJFM-12" style="edgeStyle=orthogonalEdgeStyle;rounded=0;orthogonalLoop=1;jettySize=auto;html=1;endArrow=block;endFill=0;endSize=10;fillColor=#f5f5f5;strokeColor=#666666;strokeWidth=2;" edge="1" parent="1" source="foVdDC1JOcnJWbihWJFM-8" target="foVdDC1JOcnJWbihWJFM-1">
          <mxGeometry relative="1" as="geometry">
            <mxPoint x="225" y="352" as="sourcePoint" />
            <mxPoint x="323" y="262" as="targetPoint" />
          </mxGeometry>
        </mxCell>
      </root>
    </mxGraphModel>
  </diagram>
</mxfile>
